HIERARCHY
ROOT root
{
  OFFSET 0 87.9003 0
  CHANNELS 6 Xposition Yposition Zposition Zrotation Xrotation Yrotation
  JOINT torso_1
  {
    OFFSET 0 4.78511 -1.08482
    CHANNELS 6 Xposition Yposition Zposition Zrotation Xrotation Yrotation
    JOINT torso_2
    {
      OFFSET 0 5.29195 1.00949
      CHANNELS 6 Xposition Yposition Zposition Zrotation Xrotation Yrotation
      JOINT torso_3
      {
        OFFSET -9.66735e-18 5.64355 0.108362
        CHANNELS 6 Xposition Yposition Zposition Zrotation Xrotation Yrotation
        JOINT torso_4
        {
          OFFSET -1.04072e-17 6.12977 -0.417886
          CHANNELS 6 Xposition Yposition Zposition Zrotation Xrotation Yrotation
          JOINT torso_5
          {
            OFFSET -1.85891e-17 7.16586 -1.41888
            CHANNELS 6 Xposition Yposition Zposition Zrotation Xrotation Yrotation
            JOINT torso_6
            {
              OFFSET -2.38665e-17 8.94839 -0.861631
              CHANNELS 6 Xposition Yposition Zposition Zrotation Xrotation Yrotation
              JOINT torso_7
              {
                OFFSET -2.73615e-17 9.94144 1.48576
                CHANNELS 6 Xposition Yposition Zposition Zrotation Xrotation Yrotation
                JOINT neck_1
                {
                  OFFSET -1.21725e-17 4.50977 0.67399
                  CHANNELS 6 Xposition Yposition Zposition Zrotation Xrotation Yrotation
                  JOINT neck_2
                  {
                    OFFSET -1.70689e-17 4.54241 0.39741
                    CHANNELS 6 Xposition Yposition Zposition Zrotation Xrotation Yrotation
                    JOINT head
                    {
                      OFFSET -1.89342e-17 4.5512 0.720839
                      CHANNELS 6 Xposition Yposition Zposition Zrotation Xrotation Yrotation
                      End Site
                      {
                        OFFSET 0 0.1 0
                      }
                    }
                  }
                }
                JOINT l_shoulder
                {
                  OFFSET 1.16172 -7.16758 7.09827
                  CHANNELS 6 Xposition Yposition Zposition Zrotation Xrotation Yrotation
                  JOINT l_up_arm
                  {
                    OFFSET 12.2059 3.06167 -3.07978
                    CHANNELS 6 Xposition Yposition Zposition Zrotation Xrotation Yrotation
                    JOINT l_low_arm
                    {
                      OFFSET 27.5197 0.056351 0.129118
                      CHANNELS 6 Xposition Yposition Zposition Zrotation Xrotation Yrotation
                      JOINT l_hand
                      {
                        OFFSET 22.8331 0.0467536 0.107129
                        CHANNELS 6 Xposition Yposition Zposition Zrotation Xrotation Yrotation
                        End Site
                        {
                          OFFSET 0.1 0 0
                        }
                      }
                    }
                  }
                }
                JOINT r_shoulder
                {
                  OFFSET -1.16172 -7.16756 7.09818
                  CHANNELS 6 Xposition Yposition Zposition Zrotation Xrotation Yrotation
                  JOINT r_up_arm
                  {
                    OFFSET -12.2059 3.06167 -3.07978
                    CHANNELS 6 Xposition Yposition Zposition Zrotation Xrotation Yrotation
                    JOINT r_low_arm
                    {
                      OFFSET -27.5197 0.056351 0.129118
                      CHANNELS 6 Xposition Yposition Zposition Zrotation Xrotation Yrotation
                      JOINT r_hand
                      {
                        OFFSET -22.8331 0.0467534 0.107129
                        CHANNELS 6 Xposition Yposition Zposition Zrotation Xrotation Yrotation
                        End Site
                        {
                          OFFSET -0.1 0 0
                        }
                      }
                    }
                  }
                }
              }
            }
          }
        }
      }
    }
  }
  JOINT l_up_leg
  {
    OFFSET 8.70282 -3.96247 1.9152
    CHANNELS 6 Xposition Yposition Zposition Zrotation Xrotation Yrotation
    JOINT l_low_leg
    {
      OFFSET -0.803084 -36.5309 -0.617314
      CHANNELS 6 Xposition Yposition Zposition Zrotation Xrotation Yrotation
      JOINT l_foot
      {
        OFFSET -2.19176 -38.0664 -5.69911
        CHANNELS 6 Xposition Yposition Zposition Zrotation Xrotation Yrotation
        JOINT l_toes
        {
          OFFSET 0.734061 -9.31305 11.7736
          CHANNELS 6 Xposition Yposition Zposition Zrotation Xrotation Yrotation
          End Site
          {
            OFFSET 0 0 0.1
          }
        }
      }
    }
  }
  JOINT r_up_leg
  {
    OFFSET -8.70282 -3.96247 1.9152
    CHANNELS 6 Xposition Yposition Zposition Zrotation Xrotation Yrotation
    JOINT r_low_leg
    {
      OFFSET 0.803084 -36.5309 -0.617314
      CHANNELS 6 Xposition Yposition Zposition Zrotation Xrotation Yrotation
      JOINT r_foot
      {
        OFFSET 2.19176 -38.0664 -5.69911
        CHANNELS 6 Xposition Yposition Zposition Zrotation Xrotation Yrotation
        JOINT r_toes
        {
          OFFSET -0.734061 -9.31305 11.7736
          CHANNELS 6 Xposition Yposition Zposition Zrotation Xrotation Yrotation
          End Site
          {
            OFFSET 0 0 0.1
          }
        }
      }
    }
  }
}
MOTION
Frames: 8
Frame Time: 0.020000
0 87.9003 0 -0 0 -0 0 4.78511 -1.08482 -0 0 -0 0 5.29195 1.00949 -0 0 -0 -9.66735e-18 5.64355 0.108362 -0 0 -0 -1.04072e-17 6.12977 -0.417886 -0 0 -0 -1.85891e-17 7.16586 -1.41888 -0 0 -0 -2.38665e-17 8.94839 -0.861631 -0 0 -0 -2.73615e-17 9.94144 1.48576 -0 0 -0 -1.21725e-17 4.50977 0.67399 -0 0 -0 -1.70689e-17 4.54241 0.39741 -0 0 -0 -1.89342e-17 4.5512 0.720839 -0 0 -0 1.16172 -7.16758 7.09827 -0 0 -0 12.2059 3.06167 -3.07978 -0 0 -0 27.5197 0.056351 0.129118 -0 0 -0 22.8331 0.0467536 0.107129 -0 0 -0 -1.16172 -7.16756 7.09818 -0 0 -0 -12.2059 3.06167 -3.07978 -0 0 -0 -27.5197 0.056351 0.129118 -0 0 -0 -22.8331 0.0467534 0.107129 -0 0 -0 8.70282 -3.96247 1.9152 -0 0 -0 -0.803084 -36.5309 -0.617314 -0 0 -0 -2.19176 -38.0664 -5.69911 -0 0 -0 0.734061 -9.31305 11.7736 -0 0 -0 -8.70282 -3.96247 1.9152 -0 0 -0 0.803084 -36.5309 -0.617314 -0 0 -0 2.19176 -38.0664 -5.69911 -0 0 -0 -0.734061 -9.31305 11.7736 -0 0 -0 
3.82547 87.1796 -71.5208 0.101284 -2.76405 -5.49695 0 4.78511 -1.08482 -0.313786 -0.752587 0.179042 0 5.29195 1.00949 -0.132789 0.020048 0.0747762 -9.66735e-18 5.64355 0.108362 -0.0768733 1.06972 0.135401 -1.04072e-17 6.12977 -0.417886 -0.0306565 2.33612 0.145507 -1.85891e-17 7.16586 -1.41888 0.0693109 2.93338 0.107923 -2.38665e-17 8.94839 -0.861631 0.222691 3.22819 -0.163434 -2.73615e-17 9.94144 1.48576 -0.0568823 0.696957 -0.0109983 -1.21725e-17 4.50977 0.67399 0.16651 1.16149 -0.749582 -1.70689e-17 4.54241 0.39741 -0.277364 -3.65874 -0.498088 -1.89342e-17 4.5512 0.720839 -1.42281 -3.22476 2.42947 1.16172 -7.16758 7.09827 -1.47622 1.8454 0.878356 12.2059 3.06167 -3.07978 -85.7194 18.2764 2.84053 27.5197 0.056351 0.129118 2.74114 -0.305833 -13.3217 22.8331 0.0467536 0.107129 -0.485175 -21.7991 -4.34781 -1.16172 -7.16756 7.09818 2.59189 2.42032 -1.04177 -12.2059 3.06167 -3.07978 82.4178 18.2285 -2.15713 -27.5197 0.056351 0.129118 -3.1105 -0.397378 15.1527 -22.8331 0.0467534 0.107129 0.484005 -10.6665 3.40012 8.70282 -3.96247 1.9152 1.20703 -0.57477 -18.2096 -0.803084 -36.5309 -0.617314 -1.01527 3.7915 -0.0325945 -2.19176 -38.0664 -5.69911 -0.128302 -3.20142 15.4303 0.734061 -9.31305 11.7736 2.48481e-17 -7.95139e-16 1.2424e-17 -8.70282 -3.96247 1.9152 -0.470046 -2.29047 20.6034 0.803084 -36.5309 -0.617314 2.18599 8.1405 -0.0132346 2.19176 -38.0664 -5.69911 -2.15926 -3.92908 -15.1319 -0.734061 -9.31305 11.7736 -5.96354e-16 -5.59082e-16 -1.27471e-14 
3.93176 87.2175 -71.4601 -0.101307 -2.72598 -5.61004 0 4.78511 -1.08482 -0.246414 -0.778853 0.17389 0 5.29195 1.00949 -0.0783477 0.00476683 0.0779715 -9.66735e-18 5.64355 0.108362 -0.037062 1.06813 0.137037 -1.04072e-17 6.12977 -0.417886 -0.00465241 2.3599 0.146816 -1.85891e-17 7.16586 -1.41888 0.0806347 2.96974 0.10482 -2.38665e-17 8.94839 -0.861631 0.217979 3.27238 -0.164926 -2.73615e-17 9.94144 1.48576 -0.0563065 0.694995 -0.0112133 -1.21725e-17 4.50977 0.67399 0.170788 1.22361 -0.728032 -1.70689e-17 4.54241 0.39741 -0.268511 -3.74112 -0.487738 -1.89342e-17 4.5512 0.720839 -1.41674 -3.34526 2.46262 1.16172 -7.16758 7.09827 -1.51126 1.81038 0.896277 12.2059 3.06167 -3.07978 -85.7394 18.1657 2.79991 27.5197 0.056351 0.129118 2.73112 -0.30352 -13.2721 22.8331 0.0467536 0.107129 -0.472598 -21.7904 -4.34961 -1.16172 -7.16756 7.09818 2.53243 2.37181 -1.09302 -12.2059 3.06167 -3.07978 82.4067 18.2727 -2.04573 -27.5197 0.056351 0.129118 -3.12702 -0.401774 15.235 -22.8331 0.0467534 0.107129 0.498662 -10.7748 3.41147 8.70282 -3.96247 1.9152 1.35305 -0.555182 -18.161 -0.803084 -36.5309 -0.617314 -1.01539 3.79193 -0.0325944 -2.19176 -38.0664 -5.69911 -0.115721 -3.20258 15.4284 0.734061 -9.31305 11.7736 2.48481e-17 -7.95139e-16 1.2424e-17 -8.70282 -3.96247 1.9152 -0.294108 -2.63294 20.3242 0.803084 -36.5309 -0.617314 2.33853 8.70278 -0.025759 2.19176 -38.0664 -5.69911 -2.11144 -3.66838 -15.1195 -0.734061 -9.31305 11.7736 -5.96354e-16 -5.59082e-16 -1.27471e-14 
4.00964 87.2532 -71.4265 -0.279439 -2.69729 -5.65884 0 4.78511 -1.08482 -0.196142 -0.806754 0.166902 0 5.29195 1.00949 -0.0379149 -0.0110178 0.0777463 -9.66735e-18 5.64355 0.108362 -0.00768631 1.06773 0.135313 -1.04072e-17 6.12977 -0.417886 0.0145662 2.38715 0.144739 -1.85891e-17 7.16586 -1.41888 0.0882289 3.01008 0.0994662 -2.38665e-17 8.94839 -0.861631 0.212649 3.32105 -0.168293 -2.73615e-17 9.94144 1.48576 -0.0551077 0.692845 -0.0121084 -1.21725e-17 4.50977 0.67399 0.174074 1.31564 -0.739322 -1.70689e-17 4.54241 0.39741 -0.253816 -3.8299 -0.492119 -1.89342e-17 4.5512 0.720839 -1.37265 -3.49242 2.48967 1.16172 -7.16758 7.09827 -1.53119 1.76986 0.914167 12.2059 3.06167 -3.07978 -85.7261 18.1315 2.7366 27.5197 0.056351 0.129118 2.72527 -0.302173 -13.2432 22.8331 0.0467536 0.107129 -0.467765 -21.775 -4.32967 -1.16172 -7.16756 7.09818 2.45866 2.31612 -1.13984 -12.2059 3.06167 -3.07978 82.4281 18.3155 -1.9573 -27.5197 0.056351 0.129118 -3.14667 -0.407034 15.3329 -22.8331 0.0467534 0.107129 0.531002 -10.9024 3.42184 8.70282 -3.96247 1.9152 1.49379 -0.561558 -18.1532 -0.803084 -36.5309 -0.617314 -1.01923 3.80626 -0.0325901 -2.19176 -38.0664 -5.69911 -0.142355 -3.19299 15.4285 0.734061 -9.31305 11.7736 -3.20138e-16 -8.05919e-16 2.32048e-17 -8.70282 -3.96247 1.9152 -0.130222 -2.85094 19.9852 0.803084 -36.5309 -0.617314 2.43062 9.0416 -0.0340473 2.19176 -38.0664 -5.69911 -2.14238 -3.38884 -15.0997 -0.734061 -9.31305 11.7736 9.36174e-17 -5.91424e-16 -1.27686e-14 
4.05139 87.2855 -71.4083 -0.434782 -2.66331 -5.66113 0 4.78511 -1.08482 -0.165377 -0.814633 0.154164 0 5.29195 1.00949 -0.0132956 -0.0150667 0.0703867 -9.66735e-18 5.64355 0.108362 0.0105147 1.071 0.126749 -1.04072e-17 6.12977 -0.417886 0.0276194 2.40602 0.136012 -1.85891e-17 7.16586 -1.41888 0.0923465 3.0346 0.088306 -2.38665e-17 8.94839 -0.861631 0.20634 3.35077 -0.177674 -2.73615e-17 9.94144 1.48576 -0.0535221 0.692754 -0.0123462 -1.21725e-17 4.50977 0.67399 0.173051 1.41009 -0.762368 -1.70689e-17 4.54241 0.39741 -0.239542 -3.91562 -0.501605 -1.89342e-17 4.5512 0.720839 -1.29466 -3.62529 2.51918 1.16172 -7.16758 7.09827 -1.5444 1.73907 0.928861 12.2059 3.06167 -3.07978 -85.6736 18.1596 2.68566 27.5197 0.056351 0.129118 2.72875 -0.302974 -13.2605 22.8331 0.0467536 0.107129 -0.467086 -21.7574 -4.29891 -1.16172 -7.16756 7.09818 2.43155 2.27281 -1.1446 -12.2059 3.06167 -3.07978 82.444 18.286 -1.90711 -27.5197 0.056351 0.129118 -3.17261 -0.414034 15.4623 -22.8331 0.0467534 0.107129 0.569369 -10.9927 3.42346 8.70282 -3.96247 1.9152 1.63494 -0.604487 -18.1521 -0.803084 -36.5309 -0.617314 -1.03097 3.85009 -0.0325708 -2.19176 -38.0664 -5.69911 -0.207502 -3.19316 15.4356 0.734061 -9.31305 11.7736 -2.77397e-17 -7.96782e-16 1.40674e-17 -8.70282 -3.96247 1.9152 0.00324476 -2.95067 19.3427 0.803084 -36.5309 -0.617314 2.46375 9.16335 -0.0371626 2.19176 -38.0664 -5.69911 -2.1471 -3.14555 -15.079 -0.734061 -9.31305 11.7736 -4.91178e-16 -5.64012e-16 -1.27504e-14 
4.07436 87.3116 -71.414 -0.592547 -2.61216 -5.64099 0 4.78511 -1.08482 -0.134952 -0.817945 0.137795 0 5.29195 1.00949 0.0129413 -0.0153523 0.0599829 -9.66735e-18 5.64355 0.108362 0.0317447 1.07902 0.116076 -1.04072e-17 6.12977 -0.417886 0.0449565 2.4305 0.125595 -1.85891e-17 7.16586 -1.41888 0.101679 3.06395 0.0748177 -2.38665e-17 8.94839 -0.861631 0.205873 3.38697 -0.191515 -2.73615e-17 9.94144 1.48576 -0.0512724 0.69183 -0.0119426 -1.21725e-17 4.50977 0.67399 0.179427 1.49933 -0.775609 -1.70689e-17 4.54241 0.39741 -0.212259 -4.00162 -0.505847 -1.89342e-17 4.5512 0.720839 -1.26858 -3.76972 2.51893 1.16172 -7.16758 7.09827 -1.55516 1.71152 0.937681 12.2059 3.06167 -3.07978 -85.5879 18.3112 2.60229 27.5197 0.056351 0.129118 2.74016 -0.305604 -13.3168 22.8331 0.0467536 0.107129 -0.48775 -21.8093 -4.26878 -1.16172 -7.16756 7.09818 2.44525 2.23841 -1.12162 -12.2059 3.06167 -3.07978 82.4014 18.2606 -1.83715 -27.5197 0.056351 0.129118 -3.19888 -0.421187 15.5933 -22.8331 0.0467534 0.107129 0.584917 -11.1033 3.40702 8.70282 -3.96247 1.9152 1.792 -0.694689 -18.1589 -0.803084 -36.5309 -0.617314 -1.05022 3.92189 -0.0325198 -2.19176 -38.0664 -5.69911 -0.23297 -3.21263 15.4389 0.734061 -9.31305 11.7736 2.48481e-17 -7.95139e-16 1.2424e-17 -8.70282 -3.96247 1.9152 0.128991 -2.98329 18.6107 0.803084 -36.5309 -0.617314 2.4522 9.12092 -0.0360685 2.19176 -38.0664 -5.69911 -2.08279 -2.94355 -15.064 -0.734061 -9.31305 11.7736 -9.41335e-16 -5.48301e-16 -1.27255e-14 
4.08747 87.3275 -71.4436 -0.736042 -2.55212 -5.62915 0 4.78511 -1.08482 -0.115735 -0.816128 0.12299 0 5.29195 1.00949 0.0307454 -0.0110306 0.0495757 -9.66735e-18 5.64355 0.108362 0.0474147 1.09151 0.105947 -1.04072e-17 6.12977 -0.417886 0.0593228 2.45851 0.115824 -1.85891e-17 7.16586 -1.41888 0.111445 3.09512 0.0624985 -2.38665e-17 8.94839 -0.861631 0.209413 3.42463 -0.205341 -2.73615e-17 9.94144 1.48576 -0.0489989 0.68995 -0.011748 -1.21725e-17 4.50977 0.67399 0.187922 1.56791 -0.800449 -1.70689e-17 4.54241 0.39741 -0.180788 -4.07238 -0.51544 -1.89342e-17 4.5512 0.720839 -1.25121 -3.90661 2.5487 1.16172 -7.16758 7.09827 -1.55584 1.68879 0.937304 12.2059 3.06167 -3.07978 -85.4691 18.5209 2.4789 27.5197 0.056351 0.129118 2.75311 -0.308607 -13.3808 22.8331 0.0467536 0.107129 -0.513769 -21.9375 -4.22427 -1.16172 -7.16756 7.09818 2.47014 2.21105 -1.08575 -12.2059 3.06167 -3.07978 82.3439 18.2755 -1.73257 -27.5197 0.056351 0.129118 -3.21813 -0.426469 15.6894 -22.8331 0.0467534 0.107129 0.59692 -11.1951 3.36937 8.70282 -3.96247 1.9152 1.93636 -0.80175 -18.1369 -0.803084 -36.5309 -0.617314 -1.06808 3.98856 -0.0324508 -2.19176 -38.0664 -5.69911 -0.185104 -3.23758 15.4352 0.734061 -9.31305 11.7736 2.48481e-17 -7.95139e-16 1.2424e-17 -8.70282 -3.96247 1.9152 0.242652 -2.96717 18.0252 0.803084 -36.5309 -0.617314 2.40595 8.95088 -0.0317732 2.19176 -38.0664 -5.69911 -2.00056 -2.79394 -15.0532 -0.734061 -9.31305 11.7736 -6.48942e-16 -5.57438e-16 -1.27438e-14 
4.1004 87.3231 -71.4901 -0.794586 -2.42115 -5.6274 0 4.78511 -1.08482 -0.128141 -0.826155 0.115889 0 5.29195 1.00949 0.0219288 -0.0169332 0.0427586 -9.66735e-18 5.64355 0.108362 0.0429902 1.09384 0.0999561 -1.04072e-17 6.12977 -0.417886 0.0596741 2.4763 0.11025 -1.85891e-17 7.16586 -1.41888 0.115294 3.11744 0.0567293 -2.38665e-17 8.94839 -0.861631 0.216249 3.45176 -0.213535 -2.73615e-17 9.94144 1.48576 -0.0466889 0.687641 -0.0119348 -1.21725e-17 4.50977 0.67399 0.197572 1.59513 -0.830275 -1.70689e-17 4.54241 0.39741 -0.130979 -4.11924 -0.527275 -1.89342e-17 4.5512 0.720839 -1.22456 -4.03003 2.57277 1.16172 -7.16758 7.09827 -1.51315 1.67012 0.946773 12.2059 3.06167 -3.07978 -85.3513 18.7472 2.34476 27.5197 0.056351 0.129118 2.76922 -0.312362 -13.4605 22.8331 0.0467536 0.107129 -0.538105 -22.1221 -4.19228 -1.16172 -7.16756 7.09818 2.48963 2.19571 -1.05669 -12.2059 3.06167 -3.07978 82.3097 18.3539 -1.62559 -27.5197 0.056351 0.129118 -3.23155 -0.430174 15.7564 -22.8331 0.0467534 0.107129 0.609036 -11.2708 3.32886 8.70282 -3.96247 1.9152 1.99807 -0.965944 -18.0834 -0.803084 -36.5309 -0.617314 -1.07344 4.00853 -0.0324261 -2.19176 -38.0664 -5.69911 -0.0876291 -3.28153 15.426 0.734061 -9.31305 11.7736 2.48481e-17 -7.95139e-16 1.2424e-17 -8.70282 -3.96247 1.9152 0.28943 -2.98924 17.7111 0.803084 -36.5309 -0.617314 2.33881 8.70381 -0.0257832 2.19176 -38.0664 -5.69911 -1.96922 -2.77952 -15.0544 -0.734061 -9.31305 11.7736 -5.96354e-16 -5.59082e-16 -1.27471e-14 
